<svg height="512" viewBox="0 0 512 512" width="512" xmlns="http://www.w3.org/2000/svg"><g id="solid"><path d="m448 343.671a8 8 0 0 1 -5.659-2.345l-.81-.81a70.125 70.125 0 0 0 -99.064 0l-.81.81a8 8 0 0 1 -5.657 2.345h-80a16.011 16.011 0 0 0 -15.51 19.942v.02a15.976 15.976 0 0 0 15.51 12.038h80a8 8 0 0 1 0 16h-80a31.96 31.96 0 0 1 -29.573-19.765l-76.77-25.6a16.58 16.58 0 0 0 -5.255-.862 16.493 16.493 0 0 0 -16.402 16.478v.525a16.5 16.5 0 0 0 7.62 14.011l138.865 88.368a62.2 62.2 0 0 0 49.065 7.653l122.414-32.215a7.993 7.993 0 0 1 2.036-.264h32v-96.329z"/><path d="m153.108 213.571c.233.044.463.1.69.163a60.642 60.642 0 0 0 39.178-5.105l13.362-6.665a22.755 22.755 0 0 1 4.786-2.4c.019-.007.039-.011.058-.018l6.157-3.07a8.006 8.006 0 0 1 4.539-.783l64.97 7.927a17.088 17.088 0 0 0 5.667-33.668l-77.277-16.639a8 8 0 1 1 3.368-15.64l16.8 3.617-5.1-12.926a8 8 0 0 1 14.883-5.875l9.019 22.848 11.455 2.467 1.684-7.821a8 8 0 0 1 15.642 3.368l-1.684 7.82 14.577 3.139a33.219 33.219 0 0 1 8.621 3.142l1.527-7.095a28.133 28.133 0 0 0 -6.23-24.257l-29.627-34.1a27.927 27.927 0 0 0 -21.135-9.639c-.179 0-.357 0-.537.006l-122.861 2.341a8.357 8.357 0 0 1 -3.722-.84l-89.918-44.825v101.909l59.25 26.769a7.981 7.981 0 0 1 2.907 2.235l13.209 16.2a78.727 78.727 0 0 0 44.285 27.117c.479.105.968.205 1.457.298z"/><path d="m284.911 219.5-25.211-3.072a19.982 19.982 0 0 0 2.16 25.718l52.14 52.14 52.142-52.141a20 20 0 0 0 -28.287-28.287l-18.2 18.2a8 8 0 0 1 -11.314 0l-12.931-12.934a33.481 33.481 0 0 1 -10.499.376z"/><path d="m194.131 230.213 2.026-.345a25.877 25.877 0 0 1 -.812-4.752 76.432 76.432 0 0 1 -9.811 3.316 12.038 12.038 0 0 0 8.597 1.781z"/><path d="m222.328 211.868-7.673 3.828a8.839 8.839 0 0 0 -2.833 4.155 10.083 10.083 0 0 0 1.054 8.738 9.708 9.708 0 0 0 9.787 4.307l17.391-2.958c-.034-.638-.054-1.289-.054-1.938a35.991 35.991 0 0 1 2.694-13.648z"/></g></svg>